<mxfile host="app.diagrams.net" modified="2024-02-19T08:36:48.040Z" agent="Mozilla/5.0 (Macintosh; Intel Mac OS X 10.15; rv:122.0) Gecko/20100101 Firefox/122.0" etag="yIkiSeu9SGt6jIlFAgL5" version="23.1.5" type="github">
  <diagram name="Page-1" id="3eApgr3C7NWn7lzVvxCN">
    <mxGraphModel dx="954" dy="534" grid="1" gridSize="10" guides="1" tooltips="1" connect="1" arrows="1" fold="1" page="1" pageScale="1" pageWidth="827" pageHeight="1169" math="0" shadow="0">
      <root>
        <mxCell id="0" />
        <mxCell id="1" parent="0" />
        <mxCell id="eIWtjstCgrtLrpcFXs1a-2" value="Airport Coordination System" style="verticalAlign=top;align=left;spacingTop=8;spacingLeft=2;spacingRight=12;shape=cube;size=10;direction=south;fontStyle=4;html=1;whiteSpace=wrap;" vertex="1" parent="1">
          <mxGeometry x="340" y="200" width="304.35" height="250" as="geometry" />
        </mxCell>
        <mxCell id="eIWtjstCgrtLrpcFXs1a-9" style="edgeStyle=orthogonalEdgeStyle;rounded=0;orthogonalLoop=1;jettySize=auto;html=1;exitX=0;exitY=0.25;exitDx=0;exitDy=0;entryX=1;entryY=0.25;entryDx=0;entryDy=0;" edge="1" parent="1" source="eIWtjstCgrtLrpcFXs1a-3" target="eIWtjstCgrtLrpcFXs1a-7">
          <mxGeometry relative="1" as="geometry" />
        </mxCell>
        <mxCell id="eIWtjstCgrtLrpcFXs1a-20" value="Upload manifests" style="edgeLabel;html=1;align=center;verticalAlign=middle;resizable=0;points=[];" vertex="1" connectable="0" parent="eIWtjstCgrtLrpcFXs1a-9">
          <mxGeometry x="-0.0342" relative="1" as="geometry">
            <mxPoint as="offset" />
          </mxGeometry>
        </mxCell>
        <mxCell id="eIWtjstCgrtLrpcFXs1a-29" style="edgeStyle=orthogonalEdgeStyle;rounded=0;orthogonalLoop=1;jettySize=auto;html=1;exitX=0.75;exitY=1;exitDx=0;exitDy=0;entryX=0.5;entryY=0;entryDx=0;entryDy=0;endArrow=none;endFill=0;startArrow=classic;startFill=1;" edge="1" parent="1" source="eIWtjstCgrtLrpcFXs1a-3" target="eIWtjstCgrtLrpcFXs1a-5">
          <mxGeometry relative="1" as="geometry" />
        </mxCell>
        <mxCell id="eIWtjstCgrtLrpcFXs1a-3" value="Baggage coordinator" style="html=1;whiteSpace=wrap;" vertex="1" parent="1">
          <mxGeometry x="359" y="260" width="110" height="50" as="geometry" />
        </mxCell>
        <mxCell id="eIWtjstCgrtLrpcFXs1a-12" style="edgeStyle=orthogonalEdgeStyle;rounded=0;orthogonalLoop=1;jettySize=auto;html=1;exitX=1;exitY=0.25;exitDx=0;exitDy=0;entryX=0;entryY=0.25;entryDx=0;entryDy=0;" edge="1" parent="1" source="eIWtjstCgrtLrpcFXs1a-4" target="eIWtjstCgrtLrpcFXs1a-11">
          <mxGeometry relative="1" as="geometry" />
        </mxCell>
        <mxCell id="eIWtjstCgrtLrpcFXs1a-22" value="Send flight details" style="edgeLabel;html=1;align=center;verticalAlign=middle;resizable=0;points=[];" vertex="1" connectable="0" parent="eIWtjstCgrtLrpcFXs1a-12">
          <mxGeometry x="-0.0458" relative="1" as="geometry">
            <mxPoint as="offset" />
          </mxGeometry>
        </mxCell>
        <mxCell id="eIWtjstCgrtLrpcFXs1a-28" style="edgeStyle=orthogonalEdgeStyle;rounded=0;orthogonalLoop=1;jettySize=auto;html=1;exitX=0.25;exitY=1;exitDx=0;exitDy=0;entryX=0.5;entryY=0;entryDx=0;entryDy=0;startArrow=classic;startFill=1;" edge="1" parent="1" source="eIWtjstCgrtLrpcFXs1a-4" target="eIWtjstCgrtLrpcFXs1a-5">
          <mxGeometry relative="1" as="geometry" />
        </mxCell>
        <mxCell id="eIWtjstCgrtLrpcFXs1a-30" style="edgeStyle=orthogonalEdgeStyle;rounded=0;orthogonalLoop=1;jettySize=auto;html=1;exitX=0;exitY=0.5;exitDx=0;exitDy=0;entryX=1;entryY=0.5;entryDx=0;entryDy=0;startArrow=classic;startFill=1;" edge="1" parent="1" source="eIWtjstCgrtLrpcFXs1a-4" target="eIWtjstCgrtLrpcFXs1a-3">
          <mxGeometry relative="1" as="geometry" />
        </mxCell>
        <mxCell id="eIWtjstCgrtLrpcFXs1a-4" value="&lt;div&gt;Air &lt;br&gt;&lt;/div&gt;&lt;div&gt;Controller&lt;/div&gt;" style="html=1;whiteSpace=wrap;" vertex="1" parent="1">
          <mxGeometry x="500" y="260" width="110" height="50" as="geometry" />
        </mxCell>
        <mxCell id="eIWtjstCgrtLrpcFXs1a-16" style="edgeStyle=orthogonalEdgeStyle;rounded=0;orthogonalLoop=1;jettySize=auto;html=1;exitX=0;exitY=0.5;exitDx=0;exitDy=0;entryX=0;entryY=0.5;entryDx=0;entryDy=0;" edge="1" parent="1" source="eIWtjstCgrtLrpcFXs1a-5" target="eIWtjstCgrtLrpcFXs1a-14">
          <mxGeometry relative="1" as="geometry" />
        </mxCell>
        <mxCell id="eIWtjstCgrtLrpcFXs1a-18" value="Send passenger data" style="edgeLabel;html=1;align=center;verticalAlign=middle;resizable=0;points=[];" vertex="1" connectable="0" parent="eIWtjstCgrtLrpcFXs1a-16">
          <mxGeometry x="0.3101" y="1" relative="1" as="geometry">
            <mxPoint as="offset" />
          </mxGeometry>
        </mxCell>
        <mxCell id="eIWtjstCgrtLrpcFXs1a-5" value="Central Security System" style="html=1;whiteSpace=wrap;" vertex="1" parent="1">
          <mxGeometry x="430" y="350" width="110" height="50" as="geometry" />
        </mxCell>
        <mxCell id="eIWtjstCgrtLrpcFXs1a-10" style="edgeStyle=orthogonalEdgeStyle;rounded=0;orthogonalLoop=1;jettySize=auto;html=1;exitX=0.5;exitY=1;exitDx=0;exitDy=0;entryX=0;entryY=0.75;entryDx=0;entryDy=0;" edge="1" parent="1" source="eIWtjstCgrtLrpcFXs1a-7" target="eIWtjstCgrtLrpcFXs1a-3">
          <mxGeometry relative="1" as="geometry" />
        </mxCell>
        <mxCell id="eIWtjstCgrtLrpcFXs1a-21" value="Download manifests" style="edgeLabel;html=1;align=center;verticalAlign=middle;resizable=0;points=[];" vertex="1" connectable="0" parent="eIWtjstCgrtLrpcFXs1a-10">
          <mxGeometry x="-0.6942" relative="1" as="geometry">
            <mxPoint as="offset" />
          </mxGeometry>
        </mxCell>
        <mxCell id="eIWtjstCgrtLrpcFXs1a-7" value="Airline Manifest Database" style="rounded=1;whiteSpace=wrap;html=1;" vertex="1" parent="1">
          <mxGeometry x="80" y="170" width="120" height="60" as="geometry" />
        </mxCell>
        <mxCell id="eIWtjstCgrtLrpcFXs1a-13" style="edgeStyle=orthogonalEdgeStyle;rounded=0;orthogonalLoop=1;jettySize=auto;html=1;exitX=0.5;exitY=1;exitDx=0;exitDy=0;entryX=1;entryY=0.75;entryDx=0;entryDy=0;" edge="1" parent="1" source="eIWtjstCgrtLrpcFXs1a-11" target="eIWtjstCgrtLrpcFXs1a-4">
          <mxGeometry relative="1" as="geometry" />
        </mxCell>
        <mxCell id="eIWtjstCgrtLrpcFXs1a-23" value="Get flight details" style="edgeLabel;html=1;align=center;verticalAlign=middle;resizable=0;points=[];" vertex="1" connectable="0" parent="eIWtjstCgrtLrpcFXs1a-13">
          <mxGeometry x="-0.6994" y="2" relative="1" as="geometry">
            <mxPoint as="offset" />
          </mxGeometry>
        </mxCell>
        <mxCell id="eIWtjstCgrtLrpcFXs1a-11" value="Central Flight Registry" style="rounded=1;whiteSpace=wrap;html=1;" vertex="1" parent="1">
          <mxGeometry x="780" y="170" width="120" height="60" as="geometry" />
        </mxCell>
        <mxCell id="eIWtjstCgrtLrpcFXs1a-17" style="edgeStyle=orthogonalEdgeStyle;rounded=0;orthogonalLoop=1;jettySize=auto;html=1;exitX=1;exitY=0.5;exitDx=0;exitDy=0;entryX=1;entryY=0.5;entryDx=0;entryDy=0;" edge="1" parent="1" source="eIWtjstCgrtLrpcFXs1a-14" target="eIWtjstCgrtLrpcFXs1a-5">
          <mxGeometry relative="1" as="geometry" />
        </mxCell>
        <mxCell id="eIWtjstCgrtLrpcFXs1a-19" value="Get wanted lists/alerts" style="edgeLabel;html=1;align=center;verticalAlign=middle;resizable=0;points=[];" vertex="1" connectable="0" parent="eIWtjstCgrtLrpcFXs1a-17">
          <mxGeometry x="-0.32" y="-2" relative="1" as="geometry">
            <mxPoint as="offset" />
          </mxGeometry>
        </mxCell>
        <mxCell id="eIWtjstCgrtLrpcFXs1a-14" value="Police Services" style="rounded=1;whiteSpace=wrap;html=1;" vertex="1" parent="1">
          <mxGeometry x="425" y="500" width="120" height="60" as="geometry" />
        </mxCell>
        <mxCell id="eIWtjstCgrtLrpcFXs1a-26" style="edgeStyle=orthogonalEdgeStyle;rounded=0;orthogonalLoop=1;jettySize=auto;html=1;exitX=0.5;exitY=1;exitDx=0;exitDy=0;" edge="1" parent="1" source="eIWtjstCgrtLrpcFXs1a-24" target="eIWtjstCgrtLrpcFXs1a-4">
          <mxGeometry relative="1" as="geometry" />
        </mxCell>
        <mxCell id="eIWtjstCgrtLrpcFXs1a-27" value="Ping plane status" style="edgeLabel;html=1;align=center;verticalAlign=middle;resizable=0;points=[];" vertex="1" connectable="0" parent="eIWtjstCgrtLrpcFXs1a-26">
          <mxGeometry x="-0.5674" relative="1" as="geometry">
            <mxPoint as="offset" />
          </mxGeometry>
        </mxCell>
        <mxCell id="eIWtjstCgrtLrpcFXs1a-24" value="Airplanes in flight" style="rounded=1;whiteSpace=wrap;html=1;" vertex="1" parent="1">
          <mxGeometry x="510" y="70" width="120" height="60" as="geometry" />
        </mxCell>
      </root>
    </mxGraphModel>
  </diagram>
</mxfile>
